# xmcd CD database file
#
# Track frame offsets:
#	150
#	14345
#	25901
#	41166
#	54735
#	68377
#	82885
#	96309
#	108589
#	122172
#	135511
#	150002
#	161741
#	175766
#	190414
#	204096
#	219198
#	233194
#	247040
#	259399
#	273277
#	286833
#	299043
#	310362
#	322578
#	335735
#
# Disc length: 4681 seconds
#
# Revision: 0
# Processed by: cddbd v1.5.2PL0 Copyright (c) Steve Scherf et al.
# Submitted via: CDex 1.84
#
DISCID=7212471a
DTITLE=Hooker, John Lee - Gotta Boogie Gotta Sing CD 2
DYEAR=2017
DGENRE=Blues
TTITLE0=Sally Mae
TTITLE1=Twister Blues
TTITLE2=Shady Groove Blues
TTITLE3=Drifting From Door To Door
TTITLE4=Crawlin' King Snake
TTITLE5=Whistlin' And Moanin' Blues
TTITLE6=Build Myself A Cave
TTITLE7=Miss Eloise
TTITLE8=Wednesday Evening
TTITLE9=One More Time
TTITLE10=Notoriety Woman
TTITLE11=Queen Bee
TTITLE12=Don't You Remember Me
TTITLE13=How Long Must I Be Your Slave?
TTITLE14=Tease Me Baby
TTITLE15=Ramblin' Myself
TTITLE16=Johnny Lee's Mood
TTITLE17=Turn Over A New Leaf
TTITLE18=I Got The Key
TTITLE19=It's Stormin' And Rainin'
TTITLE20=Let's Talk It Over
TTITLE21=Love Money Can't Buy
TTITLE22=Blue Monday
TTITLE23=Lovin' Guitar Man
TTITLE24=Down Child
TTITLE25=Nothin' But Trouble
EXTD=YEAR: 2017
EXTT0=
EXTT1=
EXTT2=
EXTT3=
EXTT4=
EXTT5=
EXTT6=
EXTT7=
EXTT8=
EXTT9=
EXTT10=
EXTT11=
EXTT12=
EXTT13=
EXTT14=
EXTT15=
EXTT16=
EXTT17=
EXTT18=
EXTT19=
EXTT20=
EXTT21=
EXTT22=
EXTT23=
EXTT24=
EXTT25=
PLAYORDER=
